<svg xmlns="http://www.w3.org/2000/svg" viewBox="0 0 320 200" role="img" aria-label="Ahtapot">
  <defs>
    <linearGradient id="ah-bg" x1="0" y1="0" x2="0" y2="1">
      <stop offset="0%" stop-color="#0b1c3a" />
      <stop offset="100%" stop-color="#040b1c" />
    </linearGradient>
    <radialGradient id="ah-body" cx="0.4" cy="0.35" r="0.7">
      <stop offset="0%" stop-color="#c094f0" />
      <stop offset="100%" stop-color="#5b2a8a" />
    </radialGradient>
  </defs>
  <rect width="320" height="200" fill="url(#ah-bg)" />
  <g stroke="rgba(120,180,220,0.18)" stroke-width="1" fill="none">
    <path d="M0 40 Q40 36 80 40 T160 40 T240 40 T320 40" />
    <path d="M0 80 Q40 76 80 80 T160 80 T240 80 T320 80" />
    <path d="M0 130 Q40 126 80 130 T160 130 T240 130 T320 130" />
    <path d="M0 170 Q40 166 80 170 T160 170 T240 170 T320 170" />
  </g>

  <g fill="#6fc5e9" opacity="0.85">
    <ellipse cx="40" cy="56" rx="9" ry="5" />
    <polygon points="31,56 24,52 24,60" />
    <ellipse cx="270" cy="148" rx="9" ry="5" />
    <polygon points="261,148 254,144 254,152" />
  </g>
  <g fill="#ff8b6b" opacity="0.85">
    <ellipse cx="260" cy="42" rx="9" ry="5" />
    <polygon points="269,42 276,38 276,46" />
  </g>

  <g transform="translate(160 110)">
    <g stroke="#3a1860" stroke-width="2" fill="#5a2a8a" stroke-linecap="round">
      <path d="M0 -22 Q-4 -52 -2 -82 Q0 -98 6 -106" stroke-width="12" fill="none" />
      <path d="M-22 0 Q-52 4 -82 2 Q-98 0 -106 -6" stroke-width="12" fill="none" />
      <path d="M0 22 Q4 52 2 82 Q0 98 -6 106" stroke-width="12" fill="none" />
      <path d="M22 0 Q52 -4 82 -2 Q98 0 106 6" stroke-width="12" fill="none" />
    </g>
    <g fill="#9b6cd0">
      <circle cx="6" cy="-106" r="7" />
      <circle cx="-106" cy="-6" r="7" />
      <circle cx="-6" cy="106" r="7" />
      <circle cx="106" cy="6" r="7" />
    </g>
    <ellipse cx="0" cy="0" rx="32" ry="30" fill="url(#ah-body)" stroke="#3a1860" stroke-width="2" />
    <circle cx="-10" cy="-6" r="6" fill="#fff" />
    <circle cx="10" cy="-6" r="6" fill="#fff" />
    <circle cx="-9" cy="-5" r="2.6" fill="#0a0b14" />
    <circle cx="11" cy="-5" r="2.6" fill="#0a0b14" />
  </g>

  <text x="20" y="194" font-family="Inter, system-ui" font-size="14" font-weight="700" fill="#f9f7ff">Ahtapot</text>
</svg>
