<svg xmlns="http://www.w3.org/2000/svg" viewBox="0 0 320 200" role="img" aria-label="Asansör">
  <defs>
    <linearGradient id="bg" x1="0" y1="0" x2="1" y2="1">
      <stop offset="0%" stop-color="#1c1c2a" />
      <stop offset="100%" stop-color="#0a0a14" />
    </linearGradient>
  </defs>
  <rect width="320" height="200" fill="url(#bg)" />
  <g fill="rgba(255,255,255,0.04)">
    <rect x="0" y="20"  width="320" height="36" />
    <rect x="0" y="92"  width="320" height="36" />
    <rect x="0" y="164" width="320" height="36" />
  </g>
  <g stroke="#2a2a3a" stroke-width="1">
    <line x1="0" y1="20" x2="320" y2="20" />
    <line x1="0" y1="56" x2="320" y2="56" />
    <line x1="0" y1="92" x2="320" y2="92" />
    <line x1="0" y1="128" x2="320" y2="128" />
    <line x1="0" y1="164" x2="320" y2="164" />
    <line x1="0" y1="200" x2="320" y2="200" />
  </g>
  <g font-family="ui-sans-serif, system-ui" font-size="12" font-weight="700" fill="#5a5a6e" text-anchor="middle">
    <text x="14" y="42">5</text>
    <text x="14" y="78">4</text>
    <text x="14" y="114">3</text>
    <text x="14" y="150">2</text>
    <text x="14" y="186">1</text>
  </g>
  <rect x="220" y="20" width="80" height="180" fill="rgba(0,0,0,0.35)" stroke="#2a2a3a" />
  <line x1="260" y1="20" x2="260" y2="92" stroke="rgba(255,255,255,0.15)" stroke-width="1" />
  <rect x="228" y="92" width="64" height="36" fill="rgba(255,255,255,0.10)" stroke="#e5e7eb" stroke-width="1.5" />
  <line x1="260" y1="92" x2="260" y2="128" stroke="rgba(255,255,255,0.25)" stroke-width="0.8" />
  <g>
    <circle cx="60"  cy="38"  r="12" fill="#fbbf24" />
    <text x="60" y="42" font-family="ui-sans-serif, system-ui" font-size="12" font-weight="700" text-anchor="middle" fill="#0a0b0e">2</text>
    <circle cx="60"  cy="146" r="12" fill="#60a5fa" />
    <text x="60" y="150" font-family="ui-sans-serif, system-ui" font-size="12" font-weight="700" text-anchor="middle" fill="#0a0b0e">4</text>
    <circle cx="100" cy="146" r="12" fill="#f87171" />
    <text x="100" y="150" font-family="ui-sans-serif, system-ui" font-size="12" font-weight="700" text-anchor="middle" fill="#0a0b0e">1</text>
    <circle cx="60"  cy="182" r="12" fill="#34d399" />
    <text x="60" y="186" font-family="ui-sans-serif, system-ui" font-size="12" font-weight="700" text-anchor="middle" fill="#0a0b0e">3</text>
  </g>
  <text x="170" y="36" font-family="ui-sans-serif, system-ui" font-size="20" font-weight="700" fill="#e4e4ed">Asansör</text>
</svg>
