<svg xmlns="http://www.w3.org/2000/svg" viewBox="0 0 320 200" role="img" aria-label="Bardak Altında">
  <defs>
    <linearGradient id="bg" x1="0" y1="0" x2="1" y2="1">
      <stop offset="0%" stop-color="#1c1c2a" />
      <stop offset="100%" stop-color="#0a0a14" />
    </linearGradient>
    <linearGradient id="cup" x1="0" y1="0" x2="0" y2="1">
      <stop offset="0%" stop-color="#d18054" />
      <stop offset="100%" stop-color="#9a5028" />
    </linearGradient>
  </defs>
  <rect width="320" height="200" fill="url(#bg)" />
  <line x1="0" y1="155" x2="320" y2="155" stroke="#2d3340" stroke-width="1.5" />
  <ellipse cx="80" cy="158" rx="36" ry="5" fill="rgba(0,0,0,0.4)" />
  <ellipse cx="160" cy="158" rx="36" ry="5" fill="rgba(0,0,0,0.4)" />
  <ellipse cx="240" cy="158" rx="36" ry="5" fill="rgba(0,0,0,0.4)" />
  <g transform="translate(80 0)">
    <polygon points="-22,60 22,60 32,155 -32,155" fill="url(#cup)" stroke="#7a3f1e" stroke-width="2" />
    <ellipse cx="0" cy="60" rx="22" ry="5" fill="#7a3f1e" />
    <ellipse cx="0" cy="60" rx="19" ry="3" fill="#b76a3f" />
  </g>
  <g transform="translate(160 30)">
    <polygon points="-22,60 22,60 32,125 -32,125" fill="url(#cup)" stroke="#7a3f1e" stroke-width="2" />
    <ellipse cx="0" cy="60" rx="22" ry="5" fill="#7a3f1e" />
    <ellipse cx="0" cy="60" rx="19" ry="3" fill="#b76a3f" />
    <circle cx="0" cy="142" r="12" fill="#fbbf24" />
    <circle cx="-4" cy="138" r="4" fill="#fde68a" />
  </g>
  <g transform="translate(240 0)">
    <polygon points="-22,60 22,60 32,155 -32,155" fill="url(#cup)" stroke="#7a3f1e" stroke-width="2" />
    <ellipse cx="0" cy="60" rx="22" ry="5" fill="#7a3f1e" />
    <ellipse cx="0" cy="60" rx="19" ry="3" fill="#b76a3f" />
  </g>
  <text x="20" y="32" font-family="ui-sans-serif, system-ui" font-size="20" font-weight="700" fill="#e4e4ed">Bardak Altında</text>
</svg>
