<svg xmlns="http://www.w3.org/2000/svg" viewBox="0 0 320 200" role="img" aria-label="Blackjack">
  <defs>
    <linearGradient id="bj-felt" x1="0" y1="0" x2="1" y2="1">
      <stop offset="0%" stop-color="#0d5e3a" />
      <stop offset="100%" stop-color="#074527" />
    </linearGradient>
  </defs>
  <rect width="320" height="200" fill="url(#bj-felt)" />
  <rect x="50" y="60" width="56" height="80" rx="7" fill="#f8f5e6" transform="rotate(-12 78 100)" />
  <text x="60" y="86" font-family="ui-sans-serif, system-ui" font-size="18" font-weight="700" fill="#1a1a1a" transform="rotate(-12 78 100)">A</text>
  <text x="92" y="128" font-family="ui-sans-serif, system-ui" font-size="22" font-weight="700" fill="#1a1a1a" transform="rotate(-12 78 100)">♠</text>
  <rect x="120" y="50" width="56" height="80" rx="7" fill="#f8f5e6" transform="rotate(4 148 90)" />
  <text x="130" y="76" font-family="ui-sans-serif, system-ui" font-size="18" font-weight="700" fill="#c2362d" transform="rotate(4 148 90)">K</text>
  <text x="162" y="118" font-family="ui-sans-serif, system-ui" font-size="22" font-weight="700" fill="#c2362d" transform="rotate(4 148 90)">♥</text>
  <rect x="190" y="62" width="56" height="80" rx="7" fill="#f8f5e6" transform="rotate(10 218 102)" />
  <text x="200" y="88" font-family="ui-sans-serif, system-ui" font-size="18" font-weight="700" fill="#1a1a1a" transform="rotate(10 218 102)">10</text>
  <text x="232" y="130" font-family="ui-sans-serif, system-ui" font-size="22" font-weight="700" fill="#1a1a1a" transform="rotate(10 218 102)">♣</text>
  <text x="20" y="32" font-family="ui-sans-serif, system-ui" font-size="20" font-weight="800" fill="#f5f6f8" letter-spacing="0.04em">21</text>
  <text x="20" y="194" font-family="ui-sans-serif, system-ui" font-size="14" font-weight="700" fill="#e4e4ed">Blackjack</text>
</svg>
