<svg xmlns="http://www.w3.org/2000/svg" viewBox="0 0 320 200" role="img" aria-label="Breakout">
  <defs>
    <linearGradient id="bg" x1="0" y1="0" x2="1" y2="1">
      <stop offset="0%" stop-color="#15171f" />
      <stop offset="100%" stop-color="#0a0b0e" />
    </linearGradient>
  </defs>
  <rect width="320" height="200" fill="url(#bg)" />
  <g>
    <rect x="20"  y="30" width="40" height="14" rx="3" fill="#a78bfa" />
    <rect x="64"  y="30" width="40" height="14" rx="3" fill="#a78bfa" />
    <rect x="108" y="30" width="40" height="14" rx="3" fill="#a78bfa" />
    <rect x="152" y="30" width="40" height="14" rx="3" fill="#a78bfa" />
    <rect x="196" y="30" width="40" height="14" rx="3" fill="#a78bfa" />
    <rect x="240" y="30" width="40" height="14" rx="3" fill="#a78bfa" />

    <rect x="20"  y="48" width="40" height="14" rx="3" fill="#60a5fa" />
    <rect x="64"  y="48" width="40" height="14" rx="3" fill="#60a5fa" />
    <rect x="108" y="48" width="40" height="14" rx="3" fill="#60a5fa" />
    <rect x="152" y="48" width="40" height="14" rx="3" fill="#60a5fa" />
    <rect x="196" y="48" width="40" height="14" rx="3" fill="#60a5fa" />
    <rect x="240" y="48" width="40" height="14" rx="3" fill="#60a5fa" />

    <rect x="20"  y="66" width="40" height="14" rx="3" fill="#34d399" />
    <rect x="64"  y="66" width="40" height="14" rx="3" fill="#34d399" />
    <rect x="108" y="66" width="40" height="14" rx="3" fill="#34d399" />
    <rect x="152" y="66" width="40" height="14" rx="3" fill="#34d399" />
    <rect x="196" y="66" width="40" height="14" rx="3" fill="#34d399" />
    <rect x="240" y="66" width="40" height="14" rx="3" fill="#34d399" />

    <rect x="20"  y="84" width="40" height="14" rx="3" fill="#facc15" />
    <rect x="64"  y="84" width="40" height="14" rx="3" fill="#facc15" />
    <rect x="108" y="84" width="40" height="14" rx="3" fill="#facc15" />
    <rect x="152" y="84" width="40" height="14" rx="3" fill="#facc15" />
    <rect x="196" y="84" width="40" height="14" rx="3" fill="#facc15" />
    <rect x="240" y="84" width="40" height="14" rx="3" fill="#facc15" />
  </g>
  <circle cx="170" cy="138" r="7" fill="#fde68a" />
  <rect x="130" y="162" width="80" height="10" rx="5" fill="#38bdf8" />
  <text x="20" y="194" font-family="ui-sans-serif, system-ui" font-size="14" font-weight="700" fill="#e4e4ed">Breakout</text>
</svg>
