<svg xmlns="http://www.w3.org/2000/svg" viewBox="0 0 320 200" role="img" aria-label="Buğu">
  <defs>
    <linearGradient id="bg" x1="0" y1="0" x2="1" y2="1">
      <stop offset="0%" stop-color="#15212d" />
      <stop offset="100%" stop-color="#0a0e15" />
    </linearGradient>
    <linearGradient id="mirror" x1="0" y1="0" x2="0" y2="1">
      <stop offset="0%" stop-color="#cdd9e4" />
      <stop offset="100%" stop-color="#9fb1c4" />
    </linearGradient>
    <radialGradient id="fog" cx="0.65" cy="0.55" r="0.7">
      <stop offset="0%" stop-color="#f8fbff" stop-opacity="0.05" />
      <stop offset="55%" stop-color="#f8fbff" stop-opacity="0.55" />
      <stop offset="100%" stop-color="#f8fbff" stop-opacity="0.95" />
    </radialGradient>
  </defs>
  <rect width="320" height="200" fill="url(#bg)" />
  <rect x="40" y="36" width="240" height="138" rx="10" fill="url(#mirror)" stroke="#2a3a52" stroke-width="2" />
  <path d="M160 60 L189 130 L120 88 L200 88 L131 130 Z" fill="#0e1218" />
  <rect x="40" y="36" width="240" height="138" rx="10" fill="url(#fog)" />
  <path d="M70 110 q14 -22 28 0 q14 22 28 0 q14 -22 28 0 q14 22 28 0" stroke="#dfe9f5" stroke-width="6" stroke-linecap="round" fill="none" opacity="0.55" />
  <circle cx="118" cy="92" r="5" fill="#bfd4ec" opacity="0.7" />
  <circle cx="206" cy="74" r="4" fill="#bfd4ec" opacity="0.6" />
  <circle cx="232" cy="120" r="6" fill="#bfd4ec" opacity="0.6" />
  <text x="20" y="28" font-family="ui-sans-serif, system-ui" font-size="20" font-weight="700" fill="#e4e4ed">Buğu</text>
</svg>
