<svg xmlns="http://www.w3.org/2000/svg" viewBox="0 0 320 200" role="img" aria-label="Çini">
  <defs>
    <linearGradient id="cinBg" x1="0" y1="0" x2="1" y2="1">
      <stop offset="0%" stop-color="#10131c" />
      <stop offset="100%" stop-color="#0a0b14" />
    </linearGradient>
    <linearGradient id="cinTile" x1="0" y1="0" x2="0" y2="1">
      <stop offset="0%" stop-color="#f4ecd8" />
      <stop offset="100%" stop-color="#e5d9b7" />
    </linearGradient>
  </defs>
  <rect width="320" height="200" fill="url(#cinBg)" />
  <g transform="translate(28 28)">
    <rect x="-4" y="-4" width="152" height="152" rx="14" fill="#3a2f1f" />
    <rect x="0" y="0" width="144" height="144" rx="10" fill="url(#cinTile)" stroke="#7a5f30" stroke-width="1.5" />
    <g stroke="rgba(180,156,110,0.32)" stroke-width="1" stroke-dasharray="3 3">
      <line x1="72" y1="0" x2="72" y2="144" />
      <line x1="0" y1="72" x2="144" y2="72" />
    </g>
    <g>
      <rect x="6"  y="6"  width="33" height="33" rx="2" fill="#1f4ea8" stroke="#163a7f" stroke-width="2" />
      <rect x="105" y="6"  width="33" height="33" rx="2" fill="#1f4ea8" stroke="#163a7f" stroke-width="2" />
      <rect x="6"  y="105" width="33" height="33" rx="2" fill="#1f4ea8" stroke="#163a7f" stroke-width="2" />
      <rect x="105" y="105" width="33" height="33" rx="2" fill="#1f4ea8" stroke="#163a7f" stroke-width="2" />

      <rect x="42" y="42" width="60" height="60" rx="4" fill="#c9433a" stroke="#9d3128" stroke-width="2" />
      <rect x="55" y="55" width="34" height="34" rx="2" fill="#2a9d8f" stroke="#1e7268" stroke-width="2" />

      <rect x="42" y="6"  width="60" height="33" rx="2" fill="#2a9d8f" stroke="#1e7268" stroke-width="2" />
      <rect x="42" y="105" width="60" height="33" rx="2" fill="#2a9d8f" stroke="#1e7268" stroke-width="2" />
      <rect x="6"  y="42" width="33" height="60" rx="2" fill="#2a9d8f" stroke="#1e7268" stroke-width="2" />
      <rect x="105" y="42" width="33" height="60" rx="2" fill="#2a9d8f" stroke="#1e7268" stroke-width="2" />
    </g>
  </g>
  <text x="196" y="60" font-family="ui-sans-serif, system-ui" font-size="26" font-weight="700" fill="#f4ecd8">Çini</text>
  <text x="196" y="84" font-family="ui-sans-serif, system-ui" font-size="11" fill="#a8946a">simetrik fırça</text>
  <g transform="translate(196 100)">
    <rect x="0" y="0" width="22" height="22" rx="5" fill="#1f4ea8" stroke="#163a7f" stroke-width="2" />
    <rect x="30" y="0" width="22" height="22" rx="5" fill="#c9433a" stroke="#9d3128" stroke-width="2" />
    <rect x="60" y="0" width="22" height="22" rx="5" fill="#2a9d8f" stroke="#1e7268" stroke-width="2" />
  </g>
  <g transform="translate(196 138)" fill="none" stroke="#a8946a" stroke-width="1.5">
    <circle cx="11" cy="11" r="11" />
    <path d="M 4 11 L 18 11 M 11 4 L 11 18" />
  </g>
  <text x="220" y="155" font-family="ui-sans-serif, system-ui" font-size="11" fill="#cbb88a">4 ayna · 1 dokunuş</text>
</svg>
