<svg xmlns="http://www.w3.org/2000/svg" viewBox="0 0 320 200" role="img" aria-label="Cıva">
  <defs>
    <radialGradient id="tray" cx="0.3" cy="0.25" r="0.9">
      <stop offset="0%" stop-color="#2b3140" />
      <stop offset="100%" stop-color="#0f1218" />
    </radialGradient>
    <radialGradient id="merc" cx="0.32" cy="0.28" r="0.75">
      <stop offset="0%" stop-color="#ffffff" />
      <stop offset="18%" stop-color="#e7eaf0" />
      <stop offset="55%" stop-color="#9ea4b3" />
      <stop offset="100%" stop-color="#3e4453" />
    </radialGradient>
    <radialGradient id="hole" cx="0.5" cy="0.5" r="0.5">
      <stop offset="0%" stop-color="#000000" />
      <stop offset="70%" stop-color="#0a0c12" />
      <stop offset="100%" stop-color="rgba(10,12,18,0)" />
    </radialGradient>
  </defs>
  <rect width="320" height="200" fill="url(#tray)" />
  <rect x="12" y="12" width="296" height="176" fill="none" stroke="rgba(255,255,255,0.08)" stroke-width="2" rx="6" />

  <!-- Sinkhole -->
  <circle cx="220" cy="58" r="22" fill="url(#hole)" />
  <circle cx="220" cy="58" r="20" fill="none" stroke="rgba(180,200,255,0.12)" />

  <!-- Mercury droplets -->
  <g>
    <ellipse cx="78" cy="120" rx="32" ry="32" fill="rgba(0,0,0,0.45)" transform="translate(2 4)" />
    <circle cx="78" cy="120" r="32" fill="url(#merc)" />
    <circle cx="68" cy="108" r="9" fill="rgba(255,255,255,0.6)" />
  </g>
  <g>
    <ellipse cx="158" cy="130" rx="22" ry="22" fill="rgba(0,0,0,0.45)" transform="translate(2 4)" />
    <circle cx="158" cy="130" r="22" fill="url(#merc)" />
    <circle cx="151" cy="122" r="6" fill="rgba(255,255,255,0.6)" />
  </g>
  <g>
    <ellipse cx="208" cy="148" rx="14" ry="14" fill="rgba(0,0,0,0.45)" transform="translate(2 4)" />
    <circle cx="208" cy="148" r="14" fill="url(#merc)" />
    <circle cx="204" cy="143" r="4" fill="rgba(255,255,255,0.6)" />
  </g>
  <g>
    <ellipse cx="260" cy="118" rx="18" ry="18" fill="rgba(0,0,0,0.45)" transform="translate(2 4)" />
    <circle cx="260" cy="118" r="18" fill="url(#merc)" />
    <circle cx="254" cy="111" r="5" fill="rgba(255,255,255,0.6)" />
  </g>

  <text x="20" y="42" font-family="ui-sans-serif, system-ui" font-size="22" font-weight="700" fill="#e4e4ed">Cıva</text>
</svg>
