<svg viewBox="0 0 320 200" xmlns="http://www.w3.org/2000/svg" role="img" aria-label="Çömlekçi">
  <defs>
    <linearGradient id="bg" x1="0" y1="0" x2="0" y2="1">
      <stop offset="0%" stop-color="#1c1e24"/>
      <stop offset="100%" stop-color="#0a0b0e"/>
    </linearGradient>
    <linearGradient id="clay" x1="0" y1="0" x2="1" y2="0">
      <stop offset="0%" stop-color="#6b3f1f"/>
      <stop offset="50%" stop-color="#c47a3e"/>
      <stop offset="100%" stop-color="#6b3f1f"/>
    </linearGradient>
  </defs>
  <rect width="320" height="200" fill="url(#bg)"/>
  <line x1="160" y1="18" x2="160" y2="170" stroke="#3a3f55" stroke-width="1" opacity="0.4"/>
  <ellipse cx="160" cy="178" rx="92" ry="10" fill="#2a2c33" stroke="#3a3d44" stroke-width="1"/>
  <ellipse cx="160" cy="175" rx="78" ry="4" fill="#33363e"/>
  <path d="M138,28 L138,40 L128,58 L120,80 L116,104 L120,130 L132,158 L188,158 L200,130 L204,104 L200,80 L192,58 L182,40 L182,28 Z"
        fill="none" stroke="#6ed2ff" stroke-width="2" stroke-dasharray="5,4" opacity="0.75"/>
  <path d="M134,30 L134,42 L124,60 L118,82 L114,104 L118,128 L130,154 L190,154 L202,128 L206,104 L202,82 L196,60 L186,42 L186,30 Z"
        fill="url(#clay)" stroke="#3a2210" stroke-width="2"/>
  <circle cx="296" cy="36" r="5" fill="#5fd97d"/>
  <circle cx="296" cy="60" r="5" fill="#5fd97d"/>
  <circle cx="296" cy="84" r="5" fill="#e0c050"/>
  <circle cx="296" cy="108" r="5" fill="#5fd97d"/>
  <circle cx="296" cy="132" r="5" fill="#d05a3e"/>
  <circle cx="296" cy="156" r="5" fill="#5fd97d"/>
</svg>
