<svg xmlns="http://www.w3.org/2000/svg" viewBox="0 0 320 200" role="img" aria-label="Dama">
  <rect width="320" height="200" fill="#15171f" />
  <g transform="translate(80 16)">
    <rect width="160" height="160" fill="#6b4226" rx="6" />
    <!-- 8x8 light/dark grid -->
    <g fill="#d8b384">
      <rect x="20" y="0" width="20" height="20" />
      <rect x="60" y="0" width="20" height="20" />
      <rect x="100" y="0" width="20" height="20" />
      <rect x="140" y="0" width="20" height="20" />
      <rect x="0" y="20" width="20" height="20" />
      <rect x="40" y="20" width="20" height="20" />
      <rect x="80" y="20" width="20" height="20" />
      <rect x="120" y="20" width="20" height="20" />
      <rect x="20" y="40" width="20" height="20" />
      <rect x="60" y="40" width="20" height="20" />
      <rect x="100" y="40" width="20" height="20" />
      <rect x="140" y="40" width="20" height="20" />
      <rect x="0" y="60" width="20" height="20" />
      <rect x="40" y="60" width="20" height="20" />
      <rect x="80" y="60" width="20" height="20" />
      <rect x="120" y="60" width="20" height="20" />
      <rect x="20" y="80" width="20" height="20" />
      <rect x="60" y="80" width="20" height="20" />
      <rect x="100" y="80" width="20" height="20" />
      <rect x="140" y="80" width="20" height="20" />
      <rect x="0" y="100" width="20" height="20" />
      <rect x="40" y="100" width="20" height="20" />
      <rect x="80" y="100" width="20" height="20" />
      <rect x="120" y="100" width="20" height="20" />
      <rect x="20" y="120" width="20" height="20" />
      <rect x="60" y="120" width="20" height="20" />
      <rect x="100" y="120" width="20" height="20" />
      <rect x="140" y="120" width="20" height="20" />
      <rect x="0" y="140" width="20" height="20" />
      <rect x="40" y="140" width="20" height="20" />
      <rect x="80" y="140" width="20" height="20" />
      <rect x="120" y="140" width="20" height="20" />
    </g>
    <!-- pieces -->
    <circle cx="10" cy="30" r="7" fill="#1f2937" stroke="rgba(0,0,0,0.4)" />
    <circle cx="50" cy="30" r="7" fill="#1f2937" stroke="rgba(0,0,0,0.4)" />
    <circle cx="90" cy="30" r="7" fill="#1f2937" stroke="rgba(0,0,0,0.4)" />
    <circle cx="130" cy="30" r="7" fill="#1f2937" stroke="rgba(0,0,0,0.4)" />
    <circle cx="30" cy="50" r="7" fill="#1f2937" stroke="rgba(0,0,0,0.4)" />
    <circle cx="70" cy="50" r="7" fill="#1f2937" stroke="rgba(0,0,0,0.4)" />
    <circle cx="110" cy="50" r="7" fill="#1f2937" stroke="rgba(0,0,0,0.4)" />
    <circle cx="150" cy="50" r="7" fill="#1f2937" stroke="rgba(0,0,0,0.4)" />
    <circle cx="10" cy="110" r="7" fill="#b91c1c" stroke="rgba(0,0,0,0.4)" />
    <circle cx="50" cy="110" r="7" fill="#b91c1c" stroke="rgba(0,0,0,0.4)" />
    <circle cx="90" cy="110" r="7" fill="#b91c1c" stroke="rgba(0,0,0,0.4)" />
    <circle cx="130" cy="110" r="7" fill="#b91c1c" stroke="rgba(0,0,0,0.4)" />
    <circle cx="30" cy="130" r="7" fill="#b91c1c" stroke="rgba(0,0,0,0.4)" />
    <circle cx="70" cy="130" r="7" fill="#b91c1c" stroke="rgba(0,0,0,0.4)" />
    <circle cx="110" cy="130" r="7" fill="#b91c1c" stroke="rgba(0,0,0,0.4)" />
    <circle cx="150" cy="130" r="7" fill="#b91c1c" stroke="rgba(0,0,0,0.4)" />
  </g>
  <text x="20" y="194" font-family="ui-sans-serif, system-ui" font-size="14" font-weight="700" fill="#e4e4ed">Dama</text>
</svg>
