<svg xmlns="http://www.w3.org/2000/svg" viewBox="0 0 320 200" role="img" aria-label="Damga">
  <defs>
    <linearGradient id="wood" x1="0" y1="0" x2="0" y2="1">
      <stop offset="0%" stop-color="#3a2715" />
      <stop offset="100%" stop-color="#1c130a" />
    </linearGradient>
    <linearGradient id="cell" x1="0" y1="0" x2="0" y2="1">
      <stop offset="0%" stop-color="#7a5230" />
      <stop offset="100%" stop-color="#5a3a22" />
    </linearGradient>
  </defs>
  <rect width="320" height="200" fill="url(#wood)" />
  <g>
    <rect x="170" y="38" width="22" height="22" fill="url(#cell)" stroke="#2a1a0c" />
    <rect x="192" y="38" width="22" height="22" fill="url(#cell)" stroke="#2a1a0c" />
    <rect x="214" y="38" width="22" height="22" fill="url(#cell)" stroke="#2a1a0c" />
    <rect x="170" y="60" width="22" height="22" fill="url(#cell)" stroke="#2a1a0c" />
    <rect x="214" y="60" width="22" height="22" fill="url(#cell)" stroke="#2a1a0c" />
    <rect x="170" y="82" width="22" height="22" fill="url(#cell)" stroke="#2a1a0c" />
    <rect x="192" y="82" width="22" height="22" fill="url(#cell)" stroke="#2a1a0c" />
    <rect x="214" y="82" width="22" height="22" fill="url(#cell)" stroke="#2a1a0c" />
    <rect x="170" y="104" width="22" height="22" fill="url(#cell)" stroke="#2a1a0c" />
    <rect x="214" y="104" width="22" height="22" fill="url(#cell)" stroke="#2a1a0c" />
    <rect x="170" y="126" width="22" height="22" fill="url(#cell)" stroke="#2a1a0c" />
    <rect x="192" y="126" width="22" height="22" fill="url(#cell)" stroke="#2a1a0c" />
    <rect x="214" y="126" width="22" height="22" fill="url(#cell)" stroke="#2a1a0c" />
  </g>
  <g>
    <rect x="170" y="38" width="66" height="22" fill="#0d0805" />
    <rect x="170" y="126" width="66" height="22" fill="#0d0805" />
    <rect x="192" y="82" width="22" height="22" fill="#0d0805" />
  </g>
  <g stroke="#f4b860" stroke-width="3" stroke-linecap="round" fill="none">
    <line x1="170" y1="49" x2="236" y2="49" />
    <line x1="170" y1="137" x2="236" y2="137" />
    <line x1="203" y1="82" x2="203" y2="104" />
  </g>
  <text x="20" y="36" font-family="ui-sans-serif, system-ui" font-size="20" font-weight="700" fill="#f1e6d2">Damga</text>
  <text x="20" y="58" font-family="ui-sans-serif, system-ui" font-size="11" fill="#b08a64">düz darbelerle oy</text>
  <g stroke="#f4b860" stroke-width="2" stroke-linecap="round" opacity="0.6">
    <line x1="22" y1="120" x2="32" y2="110" />
    <line x1="22" y1="120" x2="32" y2="130" />
    <line x1="32" y1="110" x2="56" y2="110" />
    <line x1="32" y1="130" x2="56" y2="130" />
    <line x1="56" y1="110" x2="60" y2="115" />
    <line x1="56" y1="130" x2="60" y2="125" />
    <line x1="60" y1="115" x2="80" y2="120" />
    <line x1="60" y1="125" x2="80" y2="120" />
  </g>
</svg>
