<svg xmlns="http://www.w3.org/2000/svg" viewBox="0 0 320 200" role="img" aria-label="Domino">
  <defs>
    <linearGradient id="dm-bg" x1="0" y1="0" x2="1" y2="1">
      <stop offset="0%" stop-color="#0d5e3a" />
      <stop offset="100%" stop-color="#074527" />
    </linearGradient>
  </defs>
  <rect width="320" height="200" fill="url(#dm-bg)" />
  <g transform="translate(40 90) rotate(-6)">
    <rect width="64" height="32" rx="4" fill="#f4ecd8" stroke="rgba(0,0,0,0.3)" />
    <line x1="32" y1="4" x2="32" y2="28" stroke="rgba(0,0,0,0.2)" />
    <circle cx="16" cy="16" r="2.5" fill="#1a1a1a" />
    <circle cx="44" cy="9" r="2.5" fill="#1a1a1a" />
    <circle cx="50" cy="16" r="2.5" fill="#1a1a1a" />
    <circle cx="44" cy="23" r="2.5" fill="#1a1a1a" />
  </g>
  <g transform="translate(112 96)">
    <rect width="64" height="32" rx="4" fill="#f4ecd8" stroke="rgba(0,0,0,0.3)" />
    <line x1="32" y1="4" x2="32" y2="28" stroke="rgba(0,0,0,0.2)" />
    <circle cx="10" cy="9" r="2.5" fill="#1a1a1a" />
    <circle cx="22" cy="9" r="2.5" fill="#1a1a1a" />
    <circle cx="10" cy="23" r="2.5" fill="#1a1a1a" />
    <circle cx="22" cy="23" r="2.5" fill="#1a1a1a" />
    <circle cx="44" cy="9" r="2.5" fill="#1a1a1a" />
    <circle cx="50" cy="16" r="2.5" fill="#1a1a1a" />
    <circle cx="44" cy="23" r="2.5" fill="#1a1a1a" />
    <circle cx="56" cy="9" r="2.5" fill="#1a1a1a" />
    <circle cx="56" cy="23" r="2.5" fill="#1a1a1a" />
  </g>
  <g transform="translate(184 86) rotate(5)">
    <rect width="64" height="32" rx="4" fill="#f4ecd8" stroke="rgba(0,0,0,0.3)" />
    <line x1="32" y1="4" x2="32" y2="28" stroke="rgba(0,0,0,0.2)" />
    <circle cx="10" cy="9" r="2.5" fill="#1a1a1a" />
    <circle cx="22" cy="9" r="2.5" fill="#1a1a1a" />
    <circle cx="10" cy="16" r="2.5" fill="#1a1a1a" />
    <circle cx="22" cy="16" r="2.5" fill="#1a1a1a" />
    <circle cx="10" cy="23" r="2.5" fill="#1a1a1a" />
    <circle cx="22" cy="23" r="2.5" fill="#1a1a1a" />
    <circle cx="44" cy="9" r="2.5" fill="#1a1a1a" />
    <circle cx="50" cy="16" r="2.5" fill="#1a1a1a" />
    <circle cx="44" cy="23" r="2.5" fill="#1a1a1a" />
  </g>
  <text x="20" y="194" font-family="ui-sans-serif, system-ui" font-size="14" font-weight="700" fill="#e4e4ed">Domino</text>
</svg>
