<svg xmlns="http://www.w3.org/2000/svg" viewBox="0 0 320 200" role="img" aria-label="Hava Balonu">
  <defs>
    <linearGradient id="hb-sky" x1="0" y1="0" x2="0" y2="1">
      <stop offset="0%" stop-color="#0b1c3a" />
      <stop offset="55%" stop-color="#1d3b6b" />
      <stop offset="100%" stop-color="#f4a261" />
    </linearGradient>
    <radialGradient id="hb-balloon" cx="0.35" cy="0.35" r="0.7">
      <stop offset="0%" stop-color="#fef3c7" />
      <stop offset="45%" stop-color="#f97316" />
      <stop offset="100%" stop-color="#9a3412" />
    </radialGradient>
    <radialGradient id="hb-flame" cx="0.5" cy="0.5" r="0.5">
      <stop offset="0%" stop-color="#fff7d6" />
      <stop offset="55%" stop-color="#fb923c" stop-opacity="0.85" />
      <stop offset="100%" stop-color="#ef4444" stop-opacity="0" />
    </radialGradient>
  </defs>

  <rect width="320" height="200" fill="url(#hb-sky)" />

  <g fill="rgba(255,255,255,0.5)">
    <circle cx="42" cy="32" r="1.4" />
    <circle cx="78" cy="18" r="1.1" />
    <circle cx="120" cy="28" r="1.6" />
    <circle cx="200" cy="22" r="1.2" />
    <circle cx="252" cy="36" r="1.4" />
    <circle cx="290" cy="20" r="1.6" />
  </g>

  <g stroke-dasharray="5 5" stroke-width="1" fill="none">
    <line x1="0" y1="58" x2="320" y2="58" stroke="hsla(198,70%,70%,0.35)" />
    <line x1="0" y1="100" x2="320" y2="100" stroke="hsla(282,70%,70%,0.35)" />
    <line x1="0" y1="142" x2="320" y2="142" stroke="hsla(24,70%,70%,0.35)" />
  </g>

  <g fill="hsla(198,80%,70%,0.55)">
    <polygon points="40,38 52,44 40,50" />
    <polygon points="100,38 112,44 100,50" />
    <polygon points="240,38 252,44 240,50" />
  </g>
  <g fill="hsla(282,80%,70%,0.5)">
    <polygon points="78,82 66,76 78,70" />
    <polygon points="230,82 218,76 230,70" />
  </g>
  <g fill="hsla(158,80%,70%,0.55)">
    <polygon points="55,170 67,176 55,182" />
    <polygon points="280,170 268,176 280,182" />
  </g>

  <g transform="translate(180 90)">
    <line x1="0" y1="-40" x2="0" y2="-12" stroke="#cbd5f5" stroke-width="1.5" />
    <polygon points="0,-40 22,-32 0,-24" fill="#fde047" />
  </g>

  <g transform="translate(160 110)">
    <ellipse cx="0" cy="32" rx="6" ry="11" fill="url(#hb-flame)" />
    <line x1="-7" y1="14" x2="-5" y2="26" stroke="rgba(203,213,245,0.8)" stroke-width="1.2" />
    <line x1="7" y1="14" x2="5" y2="26" stroke="rgba(203,213,245,0.8)" stroke-width="1.2" />
    <rect x="-9" y="22" width="18" height="10" fill="#7c2d12" stroke="#451a03" stroke-width="1" />
    <ellipse cx="0" cy="0" rx="26" ry="28" fill="url(#hb-balloon)" />
    <path d="M -26 0 Q 0 14 26 0" stroke="#7c2d12" stroke-width="1" fill="none" opacity="0.6" />
    <path d="M -16 -22 Q -16 22 -16 22" stroke="#7c2d12" stroke-width="1" fill="none" opacity="0.5" />
    <path d="M 16 -22 Q 16 22 16 22" stroke="#7c2d12" stroke-width="1" fill="none" opacity="0.5" />
  </g>

  <text x="20" y="34" font-family="ui-sans-serif, system-ui" font-size="18" font-weight="700" fill="#fef3c7">Hava Balonu</text>
</svg>
