<svg xmlns="http://www.w3.org/2000/svg" viewBox="0 0 320 200" role="img" aria-label="Havai Fişek">
  <defs>
    <linearGradient id="bgFisek" x1="0" y1="0" x2="0" y2="1">
      <stop offset="0%" stop-color="#0d1027" />
      <stop offset="100%" stop-color="#06070f" />
    </linearGradient>
    <radialGradient id="burst1" cx="50%" cy="50%" r="50%">
      <stop offset="0%" stop-color="#fde68a" stop-opacity="0.95" />
      <stop offset="60%" stop-color="#f87171" stop-opacity="0.4" />
      <stop offset="100%" stop-color="#f87171" stop-opacity="0" />
    </radialGradient>
    <radialGradient id="burst2" cx="50%" cy="50%" r="50%">
      <stop offset="0%" stop-color="#fde68a" stop-opacity="0.95" />
      <stop offset="60%" stop-color="#34d399" stop-opacity="0.4" />
      <stop offset="100%" stop-color="#34d399" stop-opacity="0" />
    </radialGradient>
    <radialGradient id="burst3" cx="50%" cy="50%" r="50%">
      <stop offset="0%" stop-color="#fde68a" stop-opacity="0.95" />
      <stop offset="60%" stop-color="#60a5fa" stop-opacity="0.4" />
      <stop offset="100%" stop-color="#60a5fa" stop-opacity="0" />
    </radialGradient>
  </defs>
  <rect width="320" height="200" fill="url(#bgFisek)" />

  <g transform="translate(220 70)">
    <circle r="38" fill="url(#burst1)" />
    <g stroke="#fb7185" stroke-width="1.5" stroke-linecap="round" opacity="0.95">
      <line x1="0" y1="0" x2="0" y2="-26" />
      <line x1="0" y1="0" x2="20" y2="-18" />
      <line x1="0" y1="0" x2="26" y2="0" />
      <line x1="0" y1="0" x2="20" y2="18" />
      <line x1="0" y1="0" x2="0" y2="26" />
      <line x1="0" y1="0" x2="-20" y2="18" />
      <line x1="0" y1="0" x2="-26" y2="0" />
      <line x1="0" y1="0" x2="-20" y2="-18" />
    </g>
  </g>

  <g transform="translate(160 50)">
    <circle r="32" fill="url(#burst2)" />
    <g stroke="#34d399" stroke-width="1.4" stroke-linecap="round" opacity="0.9">
      <line x1="0" y1="0" x2="0" y2="-22" />
      <line x1="0" y1="0" x2="16" y2="-14" />
      <line x1="0" y1="0" x2="22" y2="0" />
      <line x1="0" y1="0" x2="16" y2="14" />
      <line x1="0" y1="0" x2="0" y2="22" />
      <line x1="0" y1="0" x2="-16" y2="14" />
      <line x1="0" y1="0" x2="-22" y2="0" />
      <line x1="0" y1="0" x2="-16" y2="-14" />
    </g>
  </g>

  <g transform="translate(260 130)">
    <circle r="28" fill="url(#burst3)" />
    <g stroke="#60a5fa" stroke-width="1.3" stroke-linecap="round" opacity="0.85">
      <line x1="0" y1="0" x2="0" y2="-18" />
      <line x1="0" y1="0" x2="13" y2="-11" />
      <line x1="0" y1="0" x2="18" y2="0" />
      <line x1="0" y1="0" x2="13" y2="11" />
      <line x1="0" y1="0" x2="0" y2="18" />
      <line x1="0" y1="0" x2="-13" y2="11" />
      <line x1="0" y1="0" x2="-18" y2="0" />
      <line x1="0" y1="0" x2="-13" y2="-11" />
    </g>
  </g>

  <g stroke="#94a3b8" stroke-width="2" stroke-linecap="round" fill="none">
    <line x1="40" y1="170" x2="40" y2="120" />
    <line x1="68" y1="170" x2="68" y2="135" />
    <line x1="96" y1="170" x2="96" y2="125" />
  </g>
  <g fill="#fb923c">
    <circle cx="40" cy="120" r="4" />
    <circle cx="68" cy="135" r="3.5" />
    <circle cx="96" cy="125" r="4" />
  </g>
  <g fill="#fef3c7" opacity="0.9">
    <circle cx="40" cy="118" r="1.8" />
    <circle cx="68" cy="133" r="1.6" />
    <circle cx="96" cy="123" r="1.8" />
  </g>

  <rect x="34" y="170" width="80" height="4" rx="2" fill="#2a2f44" />

  <text x="20" y="32" font-family="ui-sans-serif, system-ui" font-size="22" font-weight="800" fill="#e4e4ed">Havai Fişek</text>
  <text x="20" y="54" font-family="ui-sans-serif, system-ui" font-size="11" font-weight="500" fill="#98a0ad">Fitil senkronu</text>
</svg>
