<svg xmlns="http://www.w3.org/2000/svg" viewBox="0 0 320 200" role="img" aria-label="Hızar">
  <defs>
    <linearGradient id="hz-bg" x1="0" y1="0" x2="0" y2="1">
      <stop offset="0" stop-color="#231710"/>
      <stop offset="1" stop-color="#0b0805"/>
    </linearGradient>
    <linearGradient id="hz-wood" x1="0" y1="0" x2="0" y2="1">
      <stop offset="0" stop-color="#6b4626"/>
      <stop offset="0.5" stop-color="#5a3a1f"/>
      <stop offset="1" stop-color="#4a2f18"/>
    </linearGradient>
    <linearGradient id="hz-blade" x1="0" y1="0" x2="1" y2="0">
      <stop offset="0" stop-color="#8b929b"/>
      <stop offset="0.5" stop-color="#e8ebef"/>
      <stop offset="1" stop-color="#8b929b"/>
    </linearGradient>
    <clipPath id="hz-log-clip">
      <rect x="42" y="68" width="236" height="80" rx="10"/>
    </clipPath>
  </defs>

  <rect width="320" height="200" fill="url(#hz-bg)"/>

  <rect x="42" y="68" width="236" height="80" rx="10" fill="url(#hz-wood)"/>

  <g clip-path="url(#hz-log-clip)">
    <g transform="rotate(18 160 108)">
      <line x1="-40" y1="60" x2="360" y2="60" stroke="#7d5530" stroke-width="2" opacity="0.8"/>
      <line x1="-40" y1="72" x2="360" y2="72" stroke="#6c4724" stroke-width="1" opacity="0.6"/>
      <line x1="-40" y1="84" x2="360" y2="84" stroke="#7a512c" stroke-width="1" opacity="0.6"/>
      <line x1="-40" y1="96" x2="360" y2="96" stroke="#603e1e" stroke-width="1" opacity="0.6"/>
      <line x1="-40" y1="108" x2="360" y2="108" stroke="#7d5530" stroke-width="2" opacity="0.8"/>
      <line x1="-40" y1="120" x2="360" y2="120" stroke="#6c4724" stroke-width="1" opacity="0.6"/>
      <line x1="-40" y1="132" x2="360" y2="132" stroke="#7a512c" stroke-width="1" opacity="0.6"/>
      <line x1="-40" y1="144" x2="360" y2="144" stroke="#603e1e" stroke-width="1" opacity="0.6"/>
      <line x1="-40" y1="156" x2="360" y2="156" stroke="#7d5530" stroke-width="2" opacity="0.8"/>
    </g>
    <circle cx="105" cy="100" r="9" fill="#1f0e05"/>
    <circle cx="105" cy="100" r="5" fill="#3a1d09" stroke="#080302" stroke-width="1"/>
    <circle cx="220" cy="120" r="7" fill="#1f0e05"/>
    <circle cx="220" cy="120" r="4" fill="#3a1d09" stroke="#080302" stroke-width="1"/>
  </g>

  <rect x="42" y="68" width="236" height="80" rx="10" fill="none" stroke="#2c1b0c" stroke-width="2"/>

  <g transform="rotate(18 160 108)">
    <line x1="160" y1="6" x2="160" y2="210" stroke="url(#hz-blade)" stroke-width="6" stroke-linecap="round"/>
    <g stroke="#d0d4da" stroke-width="1.4">
      <line x1="160" y1="14" x2="164" y2="14"/>
      <line x1="160" y1="26" x2="164" y2="26"/>
      <line x1="160" y1="38" x2="164" y2="38"/>
      <line x1="160" y1="50" x2="164" y2="50"/>
      <line x1="160" y1="62" x2="164" y2="62"/>
      <line x1="160" y1="74" x2="164" y2="74"/>
      <line x1="160" y1="86" x2="164" y2="86"/>
      <line x1="160" y1="98" x2="164" y2="98"/>
      <line x1="160" y1="120" x2="164" y2="120"/>
      <line x1="160" y1="132" x2="164" y2="132"/>
      <line x1="160" y1="144" x2="164" y2="144"/>
      <line x1="160" y1="156" x2="164" y2="156"/>
      <line x1="160" y1="168" x2="164" y2="168"/>
      <line x1="160" y1="180" x2="164" y2="180"/>
      <line x1="160" y1="192" x2="164" y2="192"/>
    </g>
  </g>
  <circle cx="160" cy="108" r="5" fill="#fafcff" stroke="#3a3d44" stroke-width="1.5"/>
</svg>
