<svg xmlns="http://www.w3.org/2000/svg" viewBox="0 0 320 200" role="img" aria-label="İğne Deliği">
  <defs>
    <linearGradient id="igne-bg" x1="0" y1="0" x2="1" y2="1">
      <stop offset="0%" stop-color="#15171f" />
      <stop offset="100%" stop-color="#0a0b0e" />
    </linearGradient>
  </defs>
  <rect width="320" height="200" fill="url(#igne-bg)" />

  <g stroke="#1f2530" stroke-width="0.8" opacity="0.6">
    <line x1="0" y1="40" x2="320" y2="40" />
    <line x1="0" y1="80" x2="320" y2="80" />
    <line x1="0" y1="120" x2="320" y2="120" />
    <line x1="0" y1="160" x2="320" y2="160" />
    <line x1="40" y1="0" x2="40" y2="200" />
    <line x1="80" y1="0" x2="80" y2="200" />
    <line x1="120" y1="0" x2="120" y2="200" />
    <line x1="160" y1="0" x2="160" y2="200" />
    <line x1="200" y1="0" x2="200" y2="200" />
    <line x1="240" y1="0" x2="240" y2="200" />
    <line x1="280" y1="0" x2="280" y2="200" />
  </g>

  <g stroke="#cbd5e1" stroke-linecap="round">
    <line x1="40" y1="100" x2="148" y2="100" stroke-width="5" />
    <line x1="172" y1="100" x2="278" y2="100" stroke-width="5" />
  </g>
  <polygon points="284,100 274,96 274,104" fill="#cbd5e1" />

  <circle cx="160" cy="100" r="14" fill="none" stroke="#6ee7b7" stroke-width="3" />
  <circle cx="160" cy="100" r="22" fill="none" stroke="rgba(110,231,183,0.35)" stroke-width="4" />

  <path d="M 230,170 Q 200,150 175,120 Q 162,108 160,100 Q 158,92 145,80 Q 120,50 90,30"
        fill="none" stroke="#f97316" stroke-width="2.5" stroke-linecap="round" opacity="0.9" />

  <circle cx="230" cy="170" r="5.5" fill="#f97316" />
  <circle cx="90" cy="30" r="4" fill="#f97316" opacity="0.4" />

  <text x="160" y="190" font-family="ui-sans-serif, system-ui" font-size="11" font-weight="700" fill="#aab2bf" text-anchor="middle">İĞNE DELİĞİ</text>
</svg>
