<svg xmlns="http://www.w3.org/2000/svg" viewBox="0 0 320 200" role="img" aria-label="İtfaiyeci">
  <defs>
    <linearGradient id="sky" x1="0" y1="0" x2="0" y2="1">
      <stop offset="0%" stop-color="#1b2547" />
      <stop offset="100%" stop-color="#0c1224" />
    </linearGradient>
    <linearGradient id="flame" x1="0" y1="1" x2="0" y2="0">
      <stop offset="0%" stop-color="#ef4444" />
      <stop offset="100%" stop-color="#f59e0b" />
    </linearGradient>
    <radialGradient id="moon" cx="0.4" cy="0.4" r="0.7">
      <stop offset="0%" stop-color="#fff5d7" />
      <stop offset="100%" stop-color="#fff5d7" stop-opacity="0" />
    </radialGradient>
  </defs>
  <rect width="320" height="200" fill="url(#sky)" />
  <circle cx="50" cy="40" r="22" fill="url(#moon)" />
  <g fill="#ffffff" opacity="0.45">
    <rect x="20" y="20" width="1" height="1" />
    <rect x="80" y="14" width="1" height="1" />
    <rect x="140" y="22" width="1" height="1" />
    <rect x="200" y="10" width="1" height="1" />
    <rect x="260" y="28" width="1" height="1" />
    <rect x="300" y="18" width="1" height="1" />
  </g>
  <rect x="0" y="170" width="320" height="30" fill="#1a3a1d" />
  <rect x="0" y="168" width="320" height="3" fill="#3b3f50" />
  <g>
    <rect x="170" y="40" width="130" height="128" fill="#2a3149" />
    <rect x="164" y="36" width="142" height="6" fill="#1a1f30" />
    <g fill="#ffd166">
      <rect x="180" y="50" width="22" height="22" />
      <rect x="208" y="50" width="22" height="22" />
      <rect x="236" y="50" width="22" height="22" />
      <rect x="264" y="50" width="22" height="22" />
      <rect x="180" y="80" width="22" height="22" />
      <rect x="208" y="80" width="22" height="22" />
      <rect x="264" y="80" width="22" height="22" />
      <rect x="180" y="110" width="22" height="22" />
      <rect x="236" y="110" width="22" height="22" />
      <rect x="264" y="110" width="22" height="22" />
    </g>
    <rect x="236" y="80" width="22" height="22" fill="#3a2410" />
    <rect x="208" y="110" width="22" height="22" fill="#3a2410" />
    <g>
      <ellipse cx="247" cy="90" rx="9" ry="11" fill="url(#flame)" />
      <ellipse cx="247" cy="93" rx="5" ry="7" fill="#fcd34d" />
      <ellipse cx="219" cy="120" rx="9" ry="11" fill="url(#flame)" />
      <ellipse cx="219" cy="123" rx="5" ry="7" fill="#fcd34d" />
    </g>
    <rect x="208" y="148" width="20" height="20" fill="#1a1f30" />
  </g>
  <g>
    <circle cx="40" cy="160" r="10" fill="#0c0e15" />
    <circle cx="100" cy="160" r="10" fill="#0c0e15" />
    <rect x="22" y="128" width="100" height="30" fill="#d72638" />
    <rect x="90" y="116" width="32" height="20" fill="#1a1f30" />
    <rect x="94" y="120" width="24" height="12" fill="#9bd7ff" />
    <rect x="22" y="142" width="78" height="3" fill="#f4f4f5" />
    <rect x="36" y="122" width="4" height="8" fill="#bcc1d1" />
    <rect x="48" y="122" width="4" height="8" fill="#bcc1d1" />
    <circle cx="72" cy="124" r="3" fill="#fdfdff" />
  </g>
  <g fill="#67d4ff" opacity="0.85">
    <circle cx="100" cy="110" r="3" />
    <circle cx="130" cy="92" r="3" />
    <circle cx="160" cy="80" r="3" />
    <circle cx="190" cy="80" r="3" />
    <circle cx="218" cy="92" r="3" />
  </g>
  <text x="20" y="36" font-family="ui-sans-serif, system-ui" font-size="20" font-weight="700" fill="#e4e4ed">İtfaiyeci</text>
</svg>
