<svg xmlns="http://www.w3.org/2000/svg" viewBox="0 0 320 200" role="img" aria-label="Lift">
  <defs>
    <linearGradient id="lift-bg" x1="0" y1="0" x2="1" y2="1">
      <stop offset="0%" stop-color="#15171f" />
      <stop offset="100%" stop-color="#0a0b0e" />
    </linearGradient>
  </defs>
  <rect width="320" height="200" fill="url(#lift-bg)" />
  <rect x="100" y="20" width="120" height="160" fill="#14171c" stroke="#2f3540" />
  <rect x="138" y="22" width="44" height="156" fill="#1c2027" stroke="#1f242c" />
  <line x1="100" y1="56" x2="220" y2="56" stroke="#1f242c" />
  <line x1="100" y1="92" x2="220" y2="92" stroke="#1f242c" />
  <line x1="100" y1="128" x2="220" y2="128" stroke="#1f242c" />
  <line x1="100" y1="164" x2="220" y2="164" stroke="#1f242c" />
  <line x1="160" y1="22" x2="160" y2="62" stroke="#2f3540" />
  <rect x="142" y="62" width="36" height="32" fill="#232830" stroke="#818cf8" stroke-width="1.5" />
  <line x1="160" y1="66" x2="160" y2="90" stroke="#1f242c" />
  <circle cx="234" cy="40" r="9" fill="#34d399" stroke="rgba(0,0,0,0.45)" stroke-width="1.1" />
  <text x="234" y="44" font-family="ui-sans-serif, system-ui" font-size="11" font-weight="700" fill="#0a0b0e" text-anchor="middle">4</text>
  <circle cx="252" cy="40" r="9" fill="#f472b6" stroke="rgba(0,0,0,0.45)" stroke-width="1.1" />
  <text x="252" y="44" font-family="ui-sans-serif, system-ui" font-size="11" font-weight="700" fill="#0a0b0e" text-anchor="middle">2</text>
  <circle cx="234" cy="112" r="9" fill="#fbbf24" stroke="rgba(0,0,0,0.45)" stroke-width="1.1" />
  <text x="234" y="116" font-family="ui-sans-serif, system-ui" font-size="11" font-weight="700" fill="#0a0b0e" text-anchor="middle">1</text>
  <circle cx="234" cy="148" r="9" fill="#60a5fa" stroke="rgba(0,0,0,0.45)" stroke-width="1.1" />
  <text x="234" y="152" font-family="ui-sans-serif, system-ui" font-size="11" font-weight="700" fill="#0a0b0e" text-anchor="middle">3</text>
  <text x="56" y="40" font-family="ui-sans-serif, system-ui" font-size="9" font-weight="600" fill="#5a6473">Kat 5</text>
  <text x="56" y="76" font-family="ui-sans-serif, system-ui" font-size="9" font-weight="600" fill="#5a6473">Kat 4</text>
  <text x="56" y="112" font-family="ui-sans-serif, system-ui" font-size="9" font-weight="600" fill="#5a6473">Kat 3</text>
  <text x="56" y="148" font-family="ui-sans-serif, system-ui" font-size="9" font-weight="600" fill="#5a6473">Kat 2</text>
  <text x="56" y="180" font-family="ui-sans-serif, system-ui" font-size="9" font-weight="600" fill="#5a6473">Kat 1</text>
  <text x="20" y="194" font-family="ui-sans-serif, system-ui" font-size="14" font-weight="700" fill="#e4e4ed">Lift</text>
</svg>
