<svg xmlns="http://www.w3.org/2000/svg" viewBox="0 0 320 200" role="img" aria-label="Mikroskop">
  <defs>
    <radialGradient id="mk-dish" cx="0.45" cy="0.4" r="0.7">
      <stop offset="0%" stop-color="#102a3a" />
      <stop offset="60%" stop-color="#0a1a26" />
      <stop offset="100%" stop-color="#06121c" />
    </radialGradient>
    <linearGradient id="mk-bg" x1="0" y1="0" x2="1" y2="1">
      <stop offset="0%" stop-color="#0a1118" />
      <stop offset="100%" stop-color="#050a10" />
    </linearGradient>
  </defs>
  <rect width="320" height="200" fill="url(#mk-bg)" />

  <circle cx="160" cy="92" r="86" fill="url(#mk-dish)" />

  <g opacity="0.08" stroke="#5eead4" stroke-width="0.8">
    <line x1="80" y1="50" x2="240" y2="50" />
    <line x1="80" y1="70" x2="240" y2="70" />
    <line x1="80" y1="90" x2="240" y2="90" />
    <line x1="80" y1="110" x2="240" y2="110" />
    <line x1="80" y1="130" x2="240" y2="130" />
    <line x1="100" y1="20" x2="100" y2="170" />
    <line x1="130" y1="20" x2="130" y2="170" />
    <line x1="160" y1="20" x2="160" y2="170" />
    <line x1="190" y1="20" x2="190" y2="170" />
    <line x1="220" y1="20" x2="220" y2="170" />
  </g>

  <circle cx="160" cy="92" r="86" fill="none" stroke="#1e3a52" stroke-width="3" />

  <circle cx="120" cy="70" r="9" fill="#5eead4" stroke="#fff" stroke-opacity="0.5" stroke-width="1" />
  <circle cx="115" cy="66" r="2" fill="#fff" opacity="0.5" />

  <ellipse cx="195" cy="55" rx="14" ry="6" fill="#f472b6" stroke="#fff" stroke-opacity="0.5" stroke-width="1" transform="rotate(-22 195 55)" />

  <circle cx="155" cy="105" r="9" fill="#bef264" stroke="#fff" stroke-opacity="0.5" stroke-width="1" />
  <circle cx="151" cy="102" r="2" fill="#fff" opacity="0.5" />
  <path d="M 147 110 Q 138 116 132 110 Q 126 104 118 112" fill="none" stroke="#bef264" stroke-width="1.8" stroke-linecap="round" opacity="0.85" />

  <ellipse cx="215" cy="115" rx="13" ry="5.5" fill="#5eead4" stroke="#fff" stroke-opacity="0.5" stroke-width="1" transform="rotate(18 215 115)" />

  <circle cx="100" cy="125" r="8" fill="#f472b6" stroke="#fff" stroke-opacity="0.5" stroke-width="1" />

  <circle cx="180" cy="135" r="9" fill="#5eead4" stroke="#fff" stroke-opacity="0.5" stroke-width="1" />
  <circle cx="176" cy="132" r="2" fill="#fff" opacity="0.5" />
  <path d="M 172 140 Q 162 146 156 140 Q 150 134 142 142" fill="none" stroke="#5eead4" stroke-width="1.8" stroke-linecap="round" opacity="0.85" />

  <circle cx="180" cy="135" r="18" fill="none" stroke="rgba(94,234,212,0.6)" stroke-width="2" stroke-dasharray="4 3" />

  <text x="160" y="190" font-family="ui-sans-serif, system-ui" font-size="11" font-weight="700" fill="#aab2bf" text-anchor="middle">MİKROSKOP</text>
</svg>
