<svg xmlns="http://www.w3.org/2000/svg" viewBox="0 0 320 200" role="img" aria-label="Okçu">
  <defs>
    <linearGradient id="bg" x1="0" y1="0" x2="1" y2="1">
      <stop offset="0%" stop-color="#1c1c2a" />
      <stop offset="100%" stop-color="#0a0a14" />
    </linearGradient>
  </defs>
  <rect width="320" height="200" fill="url(#bg)" />
  <line x1="0" y1="160" x2="320" y2="160" stroke="#2b3142" stroke-width="1" />
  <g stroke="#e5e7eb" stroke-width="3" fill="#e5e7eb">
    <line x1="50" y1="160" x2="50" y2="118" />
    <line x1="50" y1="160" x2="42" y2="172" />
    <line x1="50" y1="160" x2="58" y2="172" />
    <circle cx="50" cy="110" r="7" />
  </g>
  <g transform="translate(60 132) rotate(-22)">
    <path d="M0 -20 Q 22 0 0 20" fill="none" stroke="#a78bfa" stroke-width="3" />
    <line x1="-8" y1="0" x2="34" y2="0" stroke="#e5e7eb" stroke-width="2" />
    <polygon points="34,0 28,-3 28,3" fill="#e5e7eb" />
  </g>
  <g stroke="#e5e7eb" stroke-width="3" fill="#e5e7eb">
    <line x1="240" y1="160" x2="240" y2="100" />
    <line x1="240" y1="160" x2="232" y2="178" />
    <line x1="240" y1="160" x2="248" y2="178" />
    <circle cx="240" cy="90" r="11" />
  </g>
  <circle cx="240" cy="68" r="9" fill="#ef4444" />
  <line x1="240" y1="59" x2="243" y2="52" stroke="#22c55e" stroke-width="2" />
  <g stroke="#f59e0b" stroke-width="2" fill="#f59e0b">
    <line x1="138" y1="32" x2="182" y2="32" />
    <polygon points="182,32 174,28 174,36" />
  </g>
  <text x="20" y="34" font-family="ui-sans-serif, system-ui" font-size="20" font-weight="700" fill="#e4e4ed">Okçu</text>
</svg>
