<svg xmlns="http://www.w3.org/2000/svg" viewBox="0 0 320 200" role="img" aria-label="Pamuk Şeker">
  <defs>
    <linearGradient id="bg" x1="0" y1="0" x2="1" y2="1">
      <stop offset="0%" stop-color="#1c1226" />
      <stop offset="100%" stop-color="#0a0710" />
    </linearGradient>
    <radialGradient id="machine" cx="0.5" cy="0.5" r="0.5">
      <stop offset="0%" stop-color="#fff0f6" />
      <stop offset="60%" stop-color="#ff79b0" />
      <stop offset="100%" stop-color="#7a2050" />
    </radialGradient>
    <radialGradient id="fluff" cx="0.5" cy="0.5" r="0.5">
      <stop offset="0%" stop-color="#ffe1ee" />
      <stop offset="100%" stop-color="#ff8fc8" />
    </radialGradient>
  </defs>
  <rect width="320" height="200" fill="url(#bg)" />
  <circle cx="160" cy="110" r="64" fill="none" stroke="rgba(255,255,255,0.08)" stroke-width="1" />
  <circle cx="160" cy="110" r="50" fill="none" stroke="rgba(255,255,255,0.05)" stroke-width="1" />
  <circle cx="160" cy="110" r="78" fill="none" stroke="rgba(255,255,255,0.05)" stroke-width="1" />
  <g fill="#ff8fc8">
    <circle cx="92" cy="64" r="3" />
    <circle cx="225" cy="155" r="3" />
    <circle cx="240" cy="70" r="3" />
    <circle cx="80" cy="145" r="3" />
  </g>
  <g fill="#7cd0ff">
    <circle cx="115" cy="160" r="3.5" />
    <circle cx="210" cy="50" r="3.5" />
  </g>
  <circle cx="60" cy="175" r="4" fill="#c89bff" />
  <circle cx="160" cy="110" r="18" fill="url(#machine)" />
  <g stroke="rgba(255,255,255,0.55)" stroke-width="1.2" stroke-linecap="round">
    <line x1="160" y1="110" x2="173" y2="98" />
    <line x1="160" y1="110" x2="148" y2="125" />
    <line x1="160" y1="110" x2="174" y2="120" />
    <line x1="160" y1="110" x2="147" y2="98" />
  </g>
  <line x1="178" y1="110" x2="240" y2="110" stroke="#c9b89b" stroke-width="3" stroke-linecap="round" />
  <g>
    <circle cx="238" cy="110" r="20" fill="url(#fluff)" />
    <circle cx="224" cy="100" r="11" fill="#ffd0e4" opacity="0.9" />
    <circle cx="250" cy="118" r="10" fill="#ff9bc6" opacity="0.85" />
    <circle cx="246" cy="98" r="9" fill="#ffd6ee" opacity="0.8" />
    <circle cx="226" cy="120" r="9" fill="#ff8fc0" opacity="0.85" />
  </g>
  <text x="20" y="36" font-family="ui-sans-serif, system-ui" font-size="20" font-weight="700" fill="#ffd0e4">Pamuk Şeker</text>
</svg>
