<svg xmlns="http://www.w3.org/2000/svg" viewBox="0 0 320 200" role="img" aria-label="Radar">
  <defs>
    <radialGradient id="g" cx="50%" cy="50%" r="50%">
      <stop offset="0%" stop-color="#0a3a1f"/>
      <stop offset="60%" stop-color="#021207"/>
      <stop offset="100%" stop-color="#000"/>
    </radialGradient>
    <linearGradient id="sweep" x1="0" y1="0" x2="1" y2="0">
      <stop offset="0%" stop-color="#4ade80" stop-opacity="0"/>
      <stop offset="100%" stop-color="#4ade80" stop-opacity="0.55"/>
    </linearGradient>
  </defs>
  <rect width="320" height="200" fill="#0a0b0e"/>
  <g transform="translate(160 100)">
    <circle r="92" fill="url(#g)"/>
    <circle r="92" fill="none" stroke="#14532d" stroke-width="1.5"/>
    <circle r="68" fill="none" stroke="#064e1e" stroke-width="1"/>
    <circle r="44" fill="none" stroke="#064e1e" stroke-width="1"/>
    <circle r="22" fill="none" stroke="#064e1e" stroke-width="1"/>
    <line x1="-92" y1="0" x2="92" y2="0" stroke="#064e1e" stroke-width="1"/>
    <line x1="0" y1="-92" x2="0" y2="92" stroke="#064e1e" stroke-width="1"/>
    <line x1="-65" y1="-65" x2="65" y2="65" stroke="#064e1e" stroke-width="1"/>
    <line x1="-65" y1="65" x2="65" y2="-65" stroke="#064e1e" stroke-width="1"/>
    <g transform="rotate(-35)">
      <path d="M 0 0 L 92 0 A 92 92 0 0 0 75.3 -53.0 Z" fill="url(#sweep)"/>
      <line x1="0" y1="0" x2="92" y2="0" stroke="#4ade80" stroke-width="2"/>
    </g>
    <circle cx="48" cy="-22" r="3.2" fill="#d1fae5"/>
    <circle cx="48" cy="-22" r="8" fill="none" stroke="#4ade80" stroke-opacity="0.6" stroke-width="1"/>
    <circle cx="-30" cy="34" r="3" fill="#d1fae5" opacity="0.7"/>
    <circle cx="-30" cy="34" r="11" fill="none" stroke="#4ade80" stroke-opacity="0.35" stroke-width="1"/>
    <circle cx="-58" cy="-12" r="2.5" fill="#d1fae5" opacity="0.4"/>
  </g>
  <text x="20" y="32" font-family="ui-monospace, monospace" font-size="11" fill="#4ade80">RADAR</text>
  <text x="20" y="46" font-family="ui-monospace, monospace" font-size="9" fill="#4ade80" opacity="0.6">AZ 235°</text>
</svg>
