<svg xmlns="http://www.w3.org/2000/svg" viewBox="0 0 320 200" role="img" aria-label="Rezonans">
  <defs>
    <linearGradient id="bg" x1="0" y1="0" x2="1" y2="1">
      <stop offset="0%" stop-color="#1c1c2a" />
      <stop offset="100%" stop-color="#0a0a14" />
    </linearGradient>
  </defs>
  <rect width="320" height="200" fill="url(#bg)" />
  <line x1="0" y1="110" x2="320" y2="110" stroke="#2f3540" stroke-width="1" />
  <path d="M0 110 C 26 50, 53 50, 80 110 S 133 170, 160 110 S 213 50, 240 110 S 293 170, 320 110"
        fill="none" stroke="#818cf8" stroke-width="6" stroke-linecap="round" />
  <path d="M0 110 C 20 78, 40 78, 60 110 S 100 142, 120 110 S 160 78, 180 110 S 220 142, 240 110 S 280 78, 300 110 L320 110"
        fill="none" stroke="#34d399" stroke-width="3" stroke-linecap="round" />
  <g>
    <rect x="40" y="158" width="16" height="30" rx="3" fill="#34d399" />
    <rect x="64" y="146" width="16" height="42" rx="3" fill="#34d399" />
    <rect x="88" y="166" width="16" height="22" rx="3" fill="#34d399" />
  </g>
  <text x="20" y="40" font-family="ui-sans-serif, system-ui" font-size="22" font-weight="700" fill="#e4e4ed">Rezonans</text>
</svg>
