<svg xmlns="http://www.w3.org/2000/svg" viewBox="0 0 320 200" role="img" aria-label="Sahaf">
  <defs>
    <linearGradient id="sahaf-bg" x1="0" y1="0" x2="1" y2="1">
      <stop offset="0%" stop-color="#1c1c2a" />
      <stop offset="100%" stop-color="#0a0a14" />
    </linearGradient>
  </defs>
  <rect width="320" height="200" fill="url(#sahaf-bg)" />
  <g font-family="ui-sans-serif, system-ui" font-weight="800" text-anchor="middle">
    <g>
      <rect x="28" y="56" width="34" height="110" rx="3" fill="#d44a4a" />
      <text x="45" y="118" font-size="22" fill="#fff">3</text>
      <text x="45" y="76" font-size="11" fill="#fff" font-weight="400">★</text>
    </g>
    <g>
      <rect x="66" y="62" width="34" height="104" rx="3" fill="#3a73c4" />
      <text x="83" y="120" font-size="22" fill="#fff">7</text>
      <text x="83" y="80" font-size="11" fill="#fff" font-weight="400">●</text>
    </g>
    <g>
      <rect x="104" y="50" width="34" height="116" rx="3" fill="#e0b13d" />
      <text x="121" y="116" font-size="22" fill="#241a05">2</text>
      <text x="121" y="72" font-size="11" fill="#241a05" font-weight="400">▲</text>
    </g>
    <g>
      <rect x="142" y="58" width="34" height="108" rx="3" fill="#8a4ec8" />
      <text x="159" y="118" font-size="22" fill="#fff">9</text>
      <text x="159" y="78" font-size="11" fill="#fff" font-weight="400">■</text>
    </g>
    <g>
      <rect x="180" y="54" width="34" height="112" rx="3" fill="#3e9d5f" />
      <text x="197" y="117" font-size="22" fill="#fff">5</text>
      <text x="197" y="74" font-size="11" fill="#fff" font-weight="400">✚</text>
    </g>
  </g>
  <rect x="22" y="166" width="200" height="4" fill="#6e4e2a" />
  <g transform="translate(248, 56)">
    <circle cx="22" cy="22" r="22" fill="rgba(255,255,255,0.06)" stroke="#e4e4ed" stroke-width="3" />
    <text x="22" y="29" font-family="ui-sans-serif, system-ui" font-size="20" font-weight="800" fill="#e4e4ed" text-anchor="middle">7</text>
    <line x1="38" y1="38" x2="56" y2="56" stroke="#e4e4ed" stroke-width="4" stroke-linecap="round" />
  </g>
  <text x="20" y="32" font-family="ui-sans-serif, system-ui" font-size="20" font-weight="700" fill="#e4e4ed">Sahaf</text>
</svg>
