<svg xmlns="http://www.w3.org/2000/svg" viewBox="0 0 320 200" role="img" aria-label="Sek Tahmin">
  <defs>
    <linearGradient id="stbg" x1="0" y1="0" x2="1" y2="1">
      <stop offset="0%" stop-color="#0a0b0e" />
      <stop offset="100%" stop-color="#161821" />
    </linearGradient>
  </defs>
  <rect width="320" height="200" fill="url(#stbg)" />
  <rect x="20" y="46" width="280" height="140" fill="#1a1d24" stroke="#2a2d33" stroke-width="2" rx="4" />
  <g stroke="rgba(170,180,200,0.08)" stroke-width="1">
    <path d="M70 46 L70 186 M120 46 L120 186 M170 46 L170 186 M220 46 L220 186 M270 46 L270 186" />
    <path d="M20 86 L300 86 M20 126 L300 126 M20 166 L300 166" />
  </g>
  <g fill="none" stroke="rgba(170,200,240,0.55)" stroke-width="1.6" stroke-dasharray="4 4">
    <path d="M20 80 L150 186 L250 86 L300 130" />
  </g>
  <circle cx="20" cy="80" r="6" fill="#7dd87a" />
  <path d="M20 80 L48 102" stroke="#7dd87a" stroke-width="2" fill="none" />
  <polygon points="48,102 41,99 42,107" fill="#7dd87a" />
  <g stroke="#e2b450" stroke-width="2" fill="none">
    <circle cx="300" cy="130" r="8" />
    <path d="M296 130 L304 130 M300 126 L300 134" />
  </g>
  <text x="20" y="36" font-family="ui-sans-serif, system-ui" font-size="20" font-weight="700" fill="#e4e4ed">Sek Tahmin</text>
</svg>
