<svg xmlns="http://www.w3.org/2000/svg" viewBox="0 0 320 200" role="img" aria-label="Şeker Eşle">
  <defs>
    <linearGradient id="se-bg" x1="0" y1="0" x2="1" y2="1">
      <stop offset="0%" stop-color="#15171f" />
      <stop offset="100%" stop-color="#0a0b0e" />
    </linearGradient>
    <radialGradient id="se-red" cx="35%" cy="30%" r="70%">
      <stop offset="0%" stop-color="#ff8a99" />
      <stop offset="100%" stop-color="#e0344b" />
    </radialGradient>
    <radialGradient id="se-yellow" cx="35%" cy="30%" r="70%">
      <stop offset="0%" stop-color="#ffe680" />
      <stop offset="100%" stop-color="#e0b020" />
    </radialGradient>
    <radialGradient id="se-green" cx="35%" cy="30%" r="70%">
      <stop offset="0%" stop-color="#9bf0b6" />
      <stop offset="100%" stop-color="#28a45a" />
    </radialGradient>
    <radialGradient id="se-blue" cx="35%" cy="30%" r="70%">
      <stop offset="0%" stop-color="#8fc4ff" />
      <stop offset="100%" stop-color="#2f7fe0" />
    </radialGradient>
    <radialGradient id="se-purple" cx="35%" cy="30%" r="70%">
      <stop offset="0%" stop-color="#d0b4ff" />
      <stop offset="100%" stop-color="#7a4ed0" />
    </radialGradient>
    <radialGradient id="se-orange" cx="35%" cy="30%" r="70%">
      <stop offset="0%" stop-color="#ffc488" />
      <stop offset="100%" stop-color="#e87a1f" />
    </radialGradient>
  </defs>
  <rect width="320" height="200" fill="url(#se-bg)" />

  <!-- 5x4 board cells -->
  <g transform="translate(40,28)">
    <g fill="#1c2027" stroke="#2f3540" stroke-width="1">
      <rect x="0"   y="0"   width="48" height="36" rx="6" />
      <rect x="48"  y="0"   width="48" height="36" rx="6" />
      <rect x="96"  y="0"   width="48" height="36" rx="6" />
      <rect x="144" y="0"   width="48" height="36" rx="6" />
      <rect x="192" y="0"   width="48" height="36" rx="6" />
      <rect x="0"   y="36"  width="48" height="36" rx="6" />
      <rect x="48"  y="36"  width="48" height="36" rx="6" />
      <rect x="96"  y="36"  width="48" height="36" rx="6" />
      <rect x="144" y="36"  width="48" height="36" rx="6" />
      <rect x="192" y="36"  width="48" height="36" rx="6" />
      <rect x="0"   y="72"  width="48" height="36" rx="6" />
      <rect x="48"  y="72"  width="48" height="36" rx="6" />
      <rect x="96"  y="72"  width="48" height="36" rx="6" />
      <rect x="144" y="72"  width="48" height="36" rx="6" />
      <rect x="192" y="72"  width="48" height="36" rx="6" />
      <rect x="0"   y="108" width="48" height="36" rx="6" />
      <rect x="48"  y="108" width="48" height="36" rx="6" />
      <rect x="96"  y="108" width="48" height="36" rx="6" />
      <rect x="144" y="108" width="48" height="36" rx="6" />
      <rect x="192" y="108" width="48" height="36" rx="6" />
    </g>

    <!-- Highlight: matched horizontal row (3 reds in second row) -->
    <g fill="none" stroke="#ff8a99" stroke-width="2" stroke-dasharray="3 3" opacity="0.7">
      <rect x="44"  y="40" width="148" height="28" rx="14" />
    </g>

    <!-- Candies (circles) -->
    <!-- Row 0 -->
    <circle cx="24"  cy="18"  r="13" fill="url(#se-purple)" />
    <circle cx="72"  cy="18"  r="13" fill="url(#se-yellow)" />
    <circle cx="120" cy="18"  r="13" fill="url(#se-blue)" />
    <circle cx="168" cy="18"  r="13" fill="url(#se-green)" />
    <circle cx="216" cy="18"  r="13" fill="url(#se-orange)" />
    <!-- Row 1: the three reds about to match -->
    <circle cx="24"  cy="54"  r="13" fill="url(#se-green)" />
    <circle cx="72"  cy="54"  r="13" fill="url(#se-red)" />
    <circle cx="120" cy="54"  r="13" fill="url(#se-red)" />
    <circle cx="168" cy="54"  r="13" fill="url(#se-red)" />
    <circle cx="216" cy="54"  r="13" fill="url(#se-blue)" />
    <!-- Row 2 -->
    <circle cx="24"  cy="90"  r="13" fill="url(#se-yellow)" />
    <circle cx="72"  cy="90"  r="13" fill="url(#se-purple)" />
    <circle cx="120" cy="90"  r="13" fill="url(#se-orange)" />
    <circle cx="168" cy="90"  r="13" fill="url(#se-yellow)" />
    <circle cx="216" cy="90"  r="13" fill="url(#se-green)" />
    <!-- Row 3 -->
    <circle cx="24"  cy="126" r="13" fill="url(#se-blue)" />
    <circle cx="72"  cy="126" r="13" fill="url(#se-orange)" />
    <circle cx="120" cy="126" r="13" fill="url(#se-green)" />
    <circle cx="168" cy="126" r="13" fill="url(#se-purple)" />
    <circle cx="216" cy="126" r="13" fill="url(#se-red)" />
  </g>
</svg>
