<svg xmlns="http://www.w3.org/2000/svg" viewBox="0 0 320 200" role="img" aria-label="Şemsiye">
  <defs>
    <linearGradient id="sky" x1="0" y1="0" x2="0" y2="1">
      <stop offset="0%" stop-color="#1c2533" />
      <stop offset="100%" stop-color="#0c121b" />
    </linearGradient>
  </defs>
  <rect width="320" height="200" fill="url(#sky)" />
  <rect y="170" width="320" height="30" fill="#1a1f29" />
  <g stroke="#7dd3fc" stroke-width="1.6" stroke-linecap="round" opacity="0.9">
    <line x1="40" y1="20" x2="34" y2="34" />
    <line x1="80" y1="40" x2="74" y2="54" />
    <line x1="120" y1="10" x2="114" y2="24" />
    <line x1="260" y1="30" x2="254" y2="44" />
    <line x1="300" y1="60" x2="294" y2="74" />
    <line x1="220" y1="70" x2="214" y2="84" />
    <line x1="60" y1="90" x2="54" y2="104" />
    <line x1="270" y1="120" x2="264" y2="134" />
    <line x1="20" y1="130" x2="14" y2="144" />
    <line x1="290" y1="150" x2="284" y2="164" />
  </g>
  <g transform="translate(160 0)">
    <line x1="0" y1="120" x2="0" y2="155" stroke="#94a3b8" stroke-width="3" />
    <path d="M -50 120 A 50 22 0 0 1 50 120 Z" fill="#ef4444" stroke="#7f1d1d" stroke-width="1.5" />
    <g stroke="#7f1d1d" stroke-width="1">
      <line x1="0" y1="98" x2="-38" y2="118" />
      <line x1="0" y1="98" x2="-20" y2="119" />
      <line x1="0" y1="98" x2="20" y2="119" />
      <line x1="0" y1="98" x2="38" y2="118" />
    </g>
    <circle cx="0" cy="160" r="9" fill="#cbd5e1" />
    <rect x="-7" y="168" width="14" height="20" fill="#cbd5e1" />
  </g>
</svg>
