<svg xmlns="http://www.w3.org/2000/svg" viewBox="0 0 320 200" role="img" aria-label="Sigorta">
  <defs>
    <linearGradient id="sigorta-bg" x1="0" y1="0" x2="1" y2="1">
      <stop offset="0%" stop-color="#15171f" />
      <stop offset="100%" stop-color="#0a0b0e" />
    </linearGradient>
  </defs>
  <rect width="320" height="200" fill="url(#sigorta-bg)" />
  <g font-family="ui-sans-serif, system-ui" font-size="10" font-weight="700" fill="#aab2bf" text-anchor="middle">
    <text x="60" y="36">1</text>
    <text x="120" y="36">2</text>
    <text x="180" y="36">3</text>
    <text x="240" y="36">4</text>
  </g>
  <g stroke="#2f3540" stroke-width="1" fill="#1c2027">
    <rect x="40" y="44" width="40" height="120" rx="3" />
    <rect x="100" y="44" width="40" height="120" rx="3" />
    <rect x="160" y="44" width="40" height="120" rx="3" />
    <rect x="220" y="44" width="40" height="120" rx="3" />
  </g>
  <g>
    <rect x="43" y="120" width="34" height="41" fill="#34d399" />
    <rect x="103" y="74" width="34" height="87" fill="#fb923c" />
    <rect x="163" y="90" width="34" height="71" fill="#fbbf24" />
    <rect x="223" y="56" width="34" height="105" fill="#f87171" />
  </g>
  <g stroke="#2f3540" stroke-width="0.6" opacity="0.55">
    <line x1="40" y1="74" x2="80" y2="74" />
    <line x1="40" y1="104" x2="80" y2="104" />
    <line x1="100" y1="74" x2="140" y2="74" />
    <line x1="100" y1="104" x2="140" y2="104" />
    <line x1="160" y1="74" x2="200" y2="74" />
    <line x1="160" y1="104" x2="200" y2="104" />
    <line x1="220" y1="74" x2="260" y2="74" />
    <line x1="220" y1="104" x2="260" y2="104" />
  </g>
  <g font-family="ui-sans-serif, system-ui" font-size="11" font-weight="700" fill="#aab2bf" text-anchor="middle">
    <text x="90" y="105">←</text>
    <text x="150" y="105">↔</text>
    <text x="210" y="105">↔</text>
  </g>
  <text x="20" y="194" font-family="ui-sans-serif, system-ui" font-size="14" font-weight="700" fill="#e4e4ed">Sigorta</text>
  <text x="300" y="194" font-family="ui-sans-serif, system-ui" font-size="10" font-weight="600" fill="#aab2bf" text-anchor="end">load · bleed · survive</text>
</svg>
