<svg xmlns="http://www.w3.org/2000/svg" viewBox="0 0 320 200" role="img" aria-label="Sismograf">
  <defs>
    <linearGradient id="sg-bg" x1="0" y1="0" x2="1" y2="1">
      <stop offset="0%" stop-color="#0c1820" />
      <stop offset="100%" stop-color="#06090e" />
    </linearGradient>
    <linearGradient id="sg-trail" x1="0" y1="0" x2="0" y2="1">
      <stop offset="0%" stop-color="#4dd0e1" stop-opacity="0.4" />
      <stop offset="100%" stop-color="#4dd0e1" stop-opacity="0" />
    </linearGradient>
  </defs>
  <rect width="320" height="200" fill="url(#sg-bg)" />
  <g stroke="rgba(120,180,200,0.14)" stroke-width="1">
    <path d="M0 50 H320 M0 100 H320 M0 150 H320" />
    <path d="M64 0 V200 M128 0 V200 M192 0 V200 M256 0 V200" />
  </g>
  <path d="M0 120 L20 120 L30 118 L40 122 L50 121 L60 100 L66 138 L72 95 L80 122 L92 80 L100 152 L108 88 L120 130 L132 88 L144 138 L156 96 L168 132 L180 104 L192 124 L208 116 L224 118 L240 122 L256 120 L272 121 L288 120 L320 120 Z" fill="url(#sg-trail)" opacity="0.7" />
  <path d="M0 120 L20 120 L30 118 L40 122 L50 121 L60 100 L66 138 L72 95 L80 122 L92 80 L100 152 L108 88 L120 130 L132 88 L144 138 L156 96 L168 132 L180 104 L192 124 L208 116 L224 118 L240 122 L256 120 L272 121 L288 120 L320 120" fill="none" stroke="#4dd0e1" stroke-width="2" stroke-linejoin="round" />
  <circle cx="180" cy="104" r="3.5" fill="#fff" />
  <text x="20" y="34" font-family="ui-sans-serif, system-ui" font-size="20" font-weight="700" fill="#e8f5f8">Sismograf</text>
  <text x="20" y="184" font-family="ui-sans-serif, system-ui" font-size="11" fill="#9bb8c4" letter-spacing="0.06em">P · S · ENVELOPE · NOISE</text>
</svg>
