<svg xmlns="http://www.w3.org/2000/svg" viewBox="0 0 320 200" role="img" aria-label="Tane">
  <defs>
    <linearGradient id="bgTane" x1="0" y1="0" x2="0" y2="1">
      <stop offset="0%" stop-color="#161018" />
      <stop offset="100%" stop-color="#0a0a14" />
    </linearGradient>
    <linearGradient id="sandTane" x1="0" y1="0" x2="0" y2="1">
      <stop offset="0%" stop-color="#f0d27a" />
      <stop offset="100%" stop-color="#b7872f" />
    </linearGradient>
  </defs>
  <rect width="320" height="200" fill="url(#bgTane)" />
  <g transform="translate(180 28)">
    <path d="M -30 0 L -30 14 Q -52 38 -52 80 Q -52 124 -38 142 L 38 142 Q 52 124 52 80 Q 52 38 30 14 L 30 0 Z"
          fill="none" stroke="#5a4f44" stroke-width="6" stroke-linejoin="round" />
    <path d="M -45 142 Q -45 96 -32 76 Q -10 88 18 78 Q 38 92 45 142 Z" fill="url(#sandTane)" />
    <circle cx="-12" cy="60" r="3" fill="#f0d27a" />
    <circle cx="6" cy="40" r="2.5" fill="#e8c873" />
    <circle cx="20" cy="58" r="2" fill="#f0d27a" />
  </g>
  <text x="20" y="36" font-family="ui-sans-serif, system-ui" font-size="22" font-weight="800" fill="#e4e4ed">Tane</text>
  <text x="20" y="58" font-family="ui-sans-serif, system-ui" font-size="11" font-weight="500" fill="#98a0ad">Kum doldur</text>
</svg>
