<svg xmlns="http://www.w3.org/2000/svg" viewBox="0 0 320 200" role="img" aria-label="Telsiz">
  <defs>
    <radialGradient id="tg" cx="50%" cy="50%" r="55%">
      <stop offset="0%" stop-color="#101a32"/>
      <stop offset="70%" stop-color="#070b18"/>
      <stop offset="100%" stop-color="#000"/>
    </radialGradient>
    <linearGradient id="bar" x1="0" x2="1" y1="0" y2="0">
      <stop offset="0%" stop-color="#475569"/>
      <stop offset="60%" stop-color="#22d3ee"/>
      <stop offset="100%" stop-color="#34d399"/>
    </linearGradient>
  </defs>
  <rect width="320" height="200" fill="#070b18"/>
  <g transform="translate(160 110)">
    <circle r="86" fill="url(#tg)"/>
    <circle r="86" fill="none" stroke="#16213a" stroke-width="1"/>
    <circle r="60" fill="none" stroke="#16213a" stroke-width="1"/>
    <circle r="34" fill="none" stroke="#16213a" stroke-width="1"/>
    <g transform="rotate(-30)">
      <path d="M 0 0 L 86 -22 A 86 86 0 0 1 86 22 Z" fill="#22d3ee" fill-opacity="0.10"/>
      <path d="M 0 0 L 86 -8 A 86 86 0 0 1 86 8 Z" fill="#22d3ee" fill-opacity="0.18"/>
    </g>
    <g transform="rotate(-30)">
      <circle r="18" fill="#0b1424" stroke="#e2e8f0" stroke-width="2"/>
      <line x1="0" y1="0" x2="22" y2="0" stroke="#e2e8f0" stroke-width="2.5" stroke-linecap="round"/>
      <path d="M 8 -14 A 14 14 0 0 1 8 14" fill="none" stroke="#e2e8f0" stroke-width="2.5" stroke-linecap="round"/>
      <circle cx="24" cy="0" r="2.5" fill="#e2e8f0"/>
    </g>
    <circle cx="74" cy="-37" r="3" fill="#22d3ee"/>
    <circle cx="74" cy="-37" r="7" fill="none" stroke="#22d3ee" stroke-opacity="0.5" stroke-width="1"/>
    <circle cx="-78" cy="32" r="3" fill="#a78bfa"/>
    <circle cx="-78" cy="32" r="7" fill="none" stroke="#a78bfa" stroke-opacity="0.5" stroke-width="1"/>
    <circle cx="42" cy="74" r="3" fill="#f59e0b"/>
    <circle cx="42" cy="74" r="7" fill="none" stroke="#f59e0b" stroke-opacity="0.5" stroke-width="1"/>
  </g>
  <g transform="translate(20 18)">
    <rect width="280" height="9" rx="2" fill="#0d162a" stroke="#16213a"/>
    <rect width="200" height="9" rx="2" fill="url(#bar)"/>
    <line x1="238" y1="-3" x2="238" y2="12" stroke="#e2e8f0" stroke-opacity="0.6" stroke-width="1"/>
  </g>
  <text x="20" y="46" font-family="ui-monospace, monospace" font-size="11" fill="#22d3ee">TELSİZ</text>
  <text x="20" y="58" font-family="ui-monospace, monospace" font-size="9" fill="#22d3ee" opacity="0.7">yön bul · kilitle</text>
  <text x="300" y="46" font-family="ui-monospace, monospace" font-size="9" fill="#94a3b8" text-anchor="end">K · D · G · B</text>
</svg>
