<svg xmlns="http://www.w3.org/2000/svg" viewBox="0 0 320 200" role="img" aria-label="Tıkaç">
  <defs>
    <linearGradient id="tk-bg" x1="0" y1="0" x2="1" y2="1">
      <stop offset="0%" stop-color="#1c1c2a" />
      <stop offset="100%" stop-color="#0a0a14" />
    </linearGradient>
    <linearGradient id="tk-water" x1="0" y1="0" x2="0" y2="1">
      <stop offset="0%" stop-color="#5eb3ff" />
      <stop offset="100%" stop-color="#3876c8" />
    </linearGradient>
  </defs>
  <rect width="320" height="200" fill="url(#tk-bg)" />
  <rect x="140" y="22" width="40" height="10" rx="2" fill="#5d4030" />
  <rect x="155" y="32" width="10" height="22" rx="2" fill="#3a2a1c" />
  <rect x="157" y="54" width="6" height="22" fill="#5eb3ff" />
  <rect x="100" y="76" width="120" height="100" rx="4" fill="#15171c" stroke="#e7e7ec" stroke-width="3" />
  <rect x="103" y="120" width="114" height="53" fill="url(#tk-water)" />
  <line x1="103" y1="120" x2="217" y2="120" stroke="#ffffff" stroke-opacity="0.4" stroke-width="2" />
  <circle cx="100" cy="140" r="9" fill="#1a0b0b" stroke="#ff7766" stroke-width="2" />
  <rect x="74" y="138" width="26" height="4" fill="#b4d2ff" fill-opacity="0.55" />
  <circle cx="220" cy="158" r="6" fill="#1a0b0b" stroke="#ffaa66" stroke-width="2" />
  <rect x="220" y="156" width="18" height="4" fill="#b4d2ff" fill-opacity="0.55" />
  <circle cx="160" cy="176" r="6" fill="#1a0b0b" stroke="#ffcc88" stroke-width="2" />
  <rect x="158" y="176" width="4" height="14" fill="#b4d2ff" fill-opacity="0.55" />
  <text x="20" y="40" font-family="ui-sans-serif, system-ui" font-size="20" font-weight="700" fill="#e4e4ed">Tıkaç</text>
</svg>
