<svg xmlns="http://www.w3.org/2000/svg" viewBox="0 0 320 200" role="img" aria-label="Yelken">
  <defs>
    <linearGradient id="yk-sea" x1="0" y1="0" x2="0" y2="1">
      <stop offset="0%" stop-color="#0b3a5e" />
      <stop offset="55%" stop-color="#0e5a86" />
      <stop offset="100%" stop-color="#10739c" />
    </linearGradient>
  </defs>
  <rect width="320" height="200" fill="url(#yk-sea)" />
  <g stroke="rgba(200,225,245,0.25)" stroke-width="1.4">
    <line x1="40" y1="40" x2="40" y2="58" />
    <line x1="110" y1="60" x2="110" y2="78" />
    <line x1="200" y1="44" x2="200" y2="62" />
    <line x1="270" y1="70" x2="270" y2="88" />
    <line x1="150" y1="100" x2="150" y2="118" />
  </g>
  <g font-family="ui-sans-serif, system-ui" font-size="11" font-weight="700" text-anchor="middle">
    <circle cx="80" cy="150" r="9" fill="#3ddc97" stroke="rgba(0,0,0,0.4)" /><text x="80" y="154" fill="#fff">1</text>
    <circle cx="232" cy="112" r="9" fill="#ff7043" stroke="rgba(0,0,0,0.4)" /><text x="232" y="116" fill="#fff">2</text>
    <circle cx="96" cy="74" r="9" fill="#ff9d6e" stroke="rgba(0,0,0,0.4)" /><text x="96" y="78" fill="#fff">3</text>
  </g>
  <circle cx="232" cy="112" r="26" fill="none" stroke="rgba(255,224,138,0.8)" stroke-width="2" />
  <polyline points="40,182 90,158 150,150 210,124 232,112" fill="none" stroke="rgba(255,255,255,0.35)" stroke-width="2" />
  <g transform="translate(232 112) rotate(28)">
    <path d="M0,-18 Q9,0 6,12 L-6,12 Q-9,0 0,-18 Z" fill="#f4e7c9" stroke="#5a3d22" stroke-width="1.5" />
    <line x1="0" y1="-2" x2="0" y2="-10" stroke="#5a3d22" stroke-width="1.5" />
    <path d="M0,-16 Q7,-6 0,2 Z" fill="#ffffff" stroke="rgba(90,61,34,0.6)" />
  </g>
  <text x="14" y="28" font-family="ui-sans-serif, system-ui" font-size="18" font-weight="700" fill="#e8f4ff">Yelken ↓</text>
</svg>
