<svg xmlns="http://www.w3.org/2000/svg" viewBox="0 0 320 200" role="img" aria-label="Yıldızlararası">
  <defs>
    <linearGradient id="sky" x1="0" y1="0" x2="0" y2="1">
      <stop offset="0%" stop-color="#0B0C10" />
      <stop offset="60%" stop-color="#1F2833" />
      <stop offset="100%" stop-color="#4527A0" />
    </linearGradient>
    <radialGradient id="earth" cx="50%" cy="40%" r="60%">
      <stop offset="0%" stop-color="#29B6F6" />
      <stop offset="100%" stop-color="#66BB6A" />
    </radialGradient>
  </defs>
  <rect width="320" height="200" fill="url(#sky)" />
  <g fill="#FFFFFF">
    <circle cx="30" cy="36" r="1.6" />
    <circle cx="78" cy="22" r="1.2" />
    <circle cx="120" cy="50" r="1.5" />
    <circle cx="200" cy="30" r="1.3" />
    <circle cx="262" cy="60" r="1.6" />
    <circle cx="300" cy="28" r="1.2" />
    <circle cx="52" cy="92" r="1.3" />
    <circle cx="150" cy="96" r="1.2" />
  </g>
  <g fill="#FFF59D">
    <circle cx="96" cy="74" r="1.6" />
    <circle cx="232" cy="86" r="1.5" />
    <circle cx="180" cy="64" r="1.3" />
  </g>
  <circle cx="44" cy="150" r="10" fill="#8d8a99" />
  <circle cx="110" cy="128" r="7" fill="#c98b5a" />
  <circle cx="255" cy="135" r="22" fill="url(#earth)" />
  <path d="M196 92 c-4-6-13-3-13 4 0 6 8 10 13 14 5-4 13-8 13-14 0-7-9-10-13-4z" fill="#FF4081" />
  <text x="20" y="184" font-family="ui-sans-serif, system-ui" font-size="22" font-weight="800" fill="#ffffff">Yıldızlararası</text>
</svg>
